<svg id="Capa_1" data-name="Capa 1" xmlns="http://www.w3.org/2000/svg" viewBox="0 0 1852.52 598.87"><g style="opacity:0.1"><rect x="506.04" y="195.26" width="81.75" height="325.38" style="fill:#b3b3b3"/><rect x="519.4" y="171.94" width="55.03" height="136.74" style="fill:#b3b3b3"/><rect x="531.65" y="157.14" width="30.53" height="75.85" style="fill:#b3b3b3"/><polygon points="557.31 196.11 536.51 196.11 536.51 144.42 544.02 144.42 551.45 144.42 557.31 144.42 557.31 196.11" style="fill:#b3b3b3"/><polygon points="545.54 173.6 543.29 173.6 543.29 121.92 544.1 121.92 544.91 121.92 545.54 121.92 545.54 173.6" style="fill:#b3b3b3"/><polygon points="550.54 155.74 548.28 155.74 548.28 104.05 549.1 104.05 549.9 104.05 550.54 104.05 550.54 155.74" style="fill:#b3b3b3"/><rect x="503.86" y="194.43" width="86.11" height="3.46" style="fill:#b3b3b3"/><rect x="517.39" y="170.27" width="59.05" height="3.34" style="fill:#b3b3b3"/><rect x="529.43" y="155.74" width="34.03" height="2.56" style="fill:#b3b3b3"/><rect x="524.46" y="177.48" width="2.56" height="14.33" style="fill:#b3b3b3;opacity:0.29"/><rect x="531.54" y="177.48" width="2.56" height="14.33" style="fill:#b3b3b3;opacity:0.29"/><rect x="538.62" y="177.48" width="2.56" height="14.33" style="fill:#b3b3b3;opacity:0.29"/><rect x="545.69" y="177.48" width="2.56" height="14.33" style="fill:#b3b3b3;opacity:0.29"/><rect x="552.77" y="177.48" width="2.56" height="14.33" style="fill:#b3b3b3;opacity:0.29"/><rect x="559.85" y="177.48" width="2.56" height="14.33" style="fill:#b3b3b3;opacity:0.29"/><rect x="566.93" y="177.48" width="2.56" height="14.33" style="fill:#b3b3b3;opacity:0.29"/><rect x="513.21" y="208.24" width="6.18" height="17" style="fill:#b3b3b3"/><rect x="525.46" y="208.24" width="6.18" height="17" style="fill:#b3b3b3;opacity:0.29"/><rect x="537.7" y="208.24" width="6.18" height="17" style="fill:#b3b3b3"/><rect x="549.94" y="208.24" width="6.18" height="17" style="fill:#b3b3b3"/><rect x="562.19" y="208.24" width="6.18" height="17" style="fill:#b3b3b3"/><rect x="574.43" y="208.24" width="6.18" height="17" style="fill:#b3b3b3"/><rect x="513.21" y="234.73" width="6.18" height="17" style="fill:#b3b3b3"/><rect x="525.46" y="234.73" width="6.18" height="17" style="fill:#b3b3b3"/><rect x="537.7" y="234.73" width="6.18" height="17" style="fill:#b3b3b3"/><rect x="549.94" y="234.73" width="6.18" height="17" style="fill:#b3b3b3;opacity:0.29"/><rect x="562.19" y="234.73" width="6.18" height="17" style="fill:#b3b3b3"/><rect x="574.43" y="234.73" width="6.18" height="17" style="fill:#b3b3b3"/><rect x="513.21" y="261.23" width="6.18" height="17" style="fill:#b3b3b3"/><rect x="525.46" y="261.23" width="6.18" height="17" style="fill:#b3b3b3"/><rect x="537.7" y="261.23" width="6.18" height="17" style="fill:#b3b3b3"/><rect x="549.94" y="261.23" width="6.18" height="17" style="fill:#b3b3b3"/><rect x="562.19" y="261.23" width="6.18" height="17" style="fill:#b3b3b3;opacity:0.29"/><rect x="574.43" y="261.23" width="6.18" height="17" style="fill:#b3b3b3;opacity:0.29"/><rect x="513.21" y="287.73" width="6.18" height="17" style="fill:#b3b3b3;opacity:0.29"/><rect x="525.46" y="287.73" width="6.18" height="17" style="fill:#b3b3b3"/><rect x="537.7" y="287.73" width="6.18" height="17" style="fill:#b3b3b3"/><rect x="549.94" y="287.73" width="6.18" height="17" style="fill:#b3b3b3"/><rect x="562.19" y="287.73" width="6.18" height="17" style="fill:#b3b3b3"/><rect x="574.43" y="287.73" width="6.18" height="17" style="fill:#b3b3b3"/><rect x="513.21" y="314.22" width="6.18" height="17" style="fill:#b3b3b3"/><rect x="525.46" y="314.22" width="6.18" height="17" style="fill:#b3b3b3;opacity:0.29"/><rect x="537.7" y="314.22" width="6.18" height="17" style="fill:#b3b3b3"/><rect x="549.94" y="314.22" width="6.18" height="17" style="fill:#b3b3b3;opacity:0.29"/><rect x="562.19" y="314.22" width="6.18" height="17" style="fill:#b3b3b3"/><rect x="574.43" y="314.22" width="6.18" height="17" style="fill:#b3b3b3"/><rect x="513.21" y="340.72" width="6.18" height="17" style="fill:#b3b3b3"/><rect x="525.46" y="340.72" width="6.18" height="17" style="fill:#b3b3b3"/><rect x="537.7" y="340.72" width="6.18" height="17" style="fill:#b3b3b3"/><rect x="549.94" y="340.72" width="6.18" height="17" style="fill:#b3b3b3"/><rect x="562.19" y="340.72" width="6.18" height="17" style="fill:#b3b3b3"/><rect x="574.43" y="340.72" width="6.18" height="17" style="fill:#b3b3b3;opacity:0.29"/><rect x="513.21" y="367.22" width="6.18" height="17" style="fill:#b3b3b3"/><rect x="525.46" y="367.22" width="6.18" height="17" style="fill:#b3b3b3;opacity:0.29"/><rect x="537.7" y="367.22" width="6.18" height="17" style="fill:#b3b3b3;opacity:0.29"/><rect x="549.94" y="367.22" width="6.18" height="17" style="fill:#b3b3b3"/><rect x="562.19" y="367.22" width="6.18" height="17" style="fill:#b3b3b3"/><rect x="574.43" y="367.22" width="6.18" height="17" style="fill:#b3b3b3"/><rect x="513.21" y="393.71" width="6.18" height="17" style="fill:#b3b3b3"/><rect x="525.46" y="393.71" width="6.18" height="17" style="fill:#b3b3b3"/><rect x="537.7" y="393.71" width="6.18" height="17" style="fill:#b3b3b3"/><rect x="549.94" y="393.71" width="6.18" height="17" style="fill:#b3b3b3"/><rect x="562.19" y="393.71" width="6.18" height="17" style="fill:#b3b3b3;opacity:0.29"/><rect x="574.43" y="393.71" width="6.18" height="17" style="fill:#b3b3b3"/><rect x="513.21" y="420.21" width="6.18" height="17" style="fill:#b3b3b3"/><rect x="525.46" y="420.21" width="6.18" height="17" style="fill:#b3b3b3;opacity:0.29"/><rect x="537.7" y="420.21" width="6.18" height="17" style="fill:#b3b3b3"/><rect x="549.94" y="420.21" width="6.18" height="17" style="fill:#b3b3b3"/><rect x="562.19" y="420.21" width="6.18" height="17" style="fill:#b3b3b3"/><rect x="574.43" y="420.21" width="6.18" height="17" style="fill:#b3b3b3"/><rect x="513.21" y="446.7" width="6.18" height="17" style="fill:#b3b3b3"/><rect x="525.46" y="446.7" width="6.18" height="17" style="fill:#b3b3b3"/><rect x="537.7" y="446.7" width="6.18" height="17" style="fill:#b3b3b3"/><rect x="549.94" y="446.7" width="6.18" height="17" style="fill:#b3b3b3;opacity:0.29"/><rect x="562.19" y="446.7" width="6.18" height="17" style="fill:#b3b3b3"/><rect x="574.43" y="446.7" width="6.18" height="17" style="fill:#b3b3b3;opacity:0.29"/><rect x="513.21" y="473.2" width="6.18" height="17" style="fill:#b3b3b3;opacity:0.29"/><rect x="525.46" y="473.2" width="6.18" height="17" style="fill:#b3b3b3"/><rect x="537.7" y="473.2" width="6.18" height="17" style="fill:#b3b3b3;opacity:0.29"/><rect x="549.94" y="473.2" width="6.18" height="17" style="fill:#b3b3b3"/><rect x="562.19" y="473.2" width="6.18" height="17" style="fill:#b3b3b3"/><rect x="574.43" y="473.2" width="6.18" height="17" style="fill:#b3b3b3"/><rect x="268.63" y="207.64" width="131.41" height="274.11" style="fill:#b3b3b3"/><rect x="264.89" y="202.93" width="138.88" height="7.75" style="fill:#b3b3b3"/><rect x="273.05" y="193.01" width="122.57" height="36.82" style="fill:#b3b3b3"/><rect x="282.43" y="177.94" width="48.54" height="40.24" style="fill:#b3b3b3"/><polygon points="310.52 189.28 282.43 189.28 282.43 168.1 302.57 168.1 310.52 189.28" style="fill:#b3b3b3"/><rect x="293.75" y="150.52" width="2.72" height="47.18" style="fill:#b3b3b3"/><path d="M297.94,208.47a2.45,2.45,0,1,1-2.45-2.45A2.45,2.45,0,0,1,297.94,208.47Z" transform="translate(-0.38 -60.39)" style="fill:#b3b3b3"/><polygon points="1488.23 502.61 1344.39 502.61 1326.44 99.6 1488.23 133.19 1488.23 502.61" style="fill:#b3b3b3"/><polygon points="860.66 272.46 860.66 137.72 838.1 137.72 838.1 101.63 830.04 101.63 830.04 48.7 785.64 48.7 785.64 9.79 781.69 9.79 781.69 48.7 772.99 48.7 772.99 0 769.04 0 769.04 48.7 740.97 48.7 740.97 137.72 726.47 137.72 726.47 272.46 714.04 272.46 714.04 517.87 869.4 517.87 869.4 272.46 860.66 272.46" style="fill:#b3b3b3"/><rect x="84.97" y="497.62" width="1718.67" height="40.88" style="fill:#b0c4c3"/><polygon points="1096.64 528.48 1020.53 528.48 1050.19 376.08 1096.64 376.08 1096.64 528.48" style="fill:#8eaba8"/><rect x="23.31" y="534.41" width="1804.53" height="64.45" style="fill:#969696"/><polygon points="1034.27 246.47 1034.27 178.94 1009.83 178.94 1009.83 153.22 996.76 153.22 996.76 131.63 992.17 131.63 992.17 94.61 990.99 94.61 990.99 131.63 986.4 131.63 986.4 153.22 973.32 153.22 973.32 178.94 949.07 178.94 949.07 246.47 944.03 246.47 944.03 369.07 906.43 369.07 906.43 508.84 944.03 508.84 981.63 508.84 1039.12 508.84 1039.12 246.47 1034.27 246.47" style="fill:#969696"/><polygon points="1174.71 324.04 1056.43 324.04 1056.43 326.19 1061.78 326.19 1061.78 526.19 1169.36 526.19 1169.36 326.19 1174.71 326.19 1174.71 324.04" style="fill:#969696"/><rect x="530.48" y="373.86" width="104.87" height="166.6" style="fill:#969696"/><rect x="334.33" y="459.22" width="180.35" height="81.24" style="fill:#969696"/><rect x="431" y="277.7" width="39.59" height="199.51" style="fill:#969696"/><rect x="439.75" y="224.48" width="2.06" height="108.5" style="fill:#969696"/><rect x="446.43" y="232.71" width="2.06" height="108.5" style="fill:#969696"/><rect x="434.06" y="265.36" width="24.2" height="26.74" style="fill:#969696"/><rect x="507.62" y="403.68" width="68.9" height="136.78" style="fill:#969696"/><rect x="652.35" y="258.94" width="129.34" height="281.53" style="fill:#969696"/><rect x="665.06" y="249.26" width="103.93" height="46.89" style="fill:#969696"/><rect x="642.33" y="264.83" width="149.4" height="3.29" style="fill:#969696"/><rect x="628.92" y="398.28" width="60.94" height="142.18" style="fill:#969696"/><rect x="192.41" y="392.88" width="69.93" height="147.58" style="fill:#969696"/><rect x="215.04" y="352.78" width="139.35" height="187.69" style="fill:#969696"/><rect x="206.91" y="345.58" width="151.08" height="7.2" style="fill:#969696"/><rect x="221.21" y="326.04" width="61.24" height="38.05" style="fill:#969696"/><rect x="302.45" y="326.04" width="10.28" height="23.14" style="fill:#969696"/><rect x="323.02" y="326.04" width="11.31" height="23.14" style="fill:#969696"/><rect x="154.36" y="483.38" width="73.02" height="57.08" style="fill:#969696"/><rect x="126.78" y="459.22" width="34.57" height="81.24" style="fill:#969696"/><rect x="84.97" y="511.92" width="59.09" height="28.54" style="fill:#969696"/><rect x="768.99" y="477.21" width="728.14" height="63.25" style="fill:#969696"/><path d="M1439.37,362.52a8.76,8.76,0,0,0-8.72,8l-10.24-.33c0-1,0-2,0-3a107.9,107.9,0,0,0-6.42-36.82l8.56-3.15a8.49,8.49,0,1,0-.34-.91l-8.56,3.15a107.2,107.2,0,0,0-22-35.64l6.7-6.28a8.67,8.67,0,1,0-.67-.71l-6.7,6.28q-1-1.1-2.1-2.16a107.75,107.75,0,0,0-34.81-23.37l3.68-9a8.64,8.64,0,0,0,2.65.41,8.76,8.76,0,1,0-3.56-.76l-3.67,8.95a107.56,107.56,0,0,0-36.54-7.77l.39-12.26h.28a8.75,8.75,0,1,0-1.25-.09l-.4,12.32c-1,0-2,0-3,0a107.74,107.74,0,0,0-35.4,5.92l-3.53-10a8.77,8.77,0,1,0-3.33.65,9.11,9.11,0,0,0,2.41-.33l3.53,10a107.12,107.12,0,0,0-37,22.57l-6.4-6.82a8.8,8.8,0,1,0-.69.67l6.38,6.81c-.73.7-1.45,1.4-2.16,2.11a107.7,107.7,0,0,0-21.5,30.58l-8.13-3.75a8.53,8.53,0,0,0,.46-2.78,8.76,8.76,0,1,0-.82,3.69l8.08,3.73a107.1,107.1,0,0,0-9.6,40.78l-10.43-.34a8.78,8.78,0,1,0,0,1l10.43.34c0,1,0,2,0,3a107.85,107.85,0,0,0,6.42,36.81l-8.56,3.16a8.76,8.76,0,1,0,.71,3.47,8.67,8.67,0,0,0-.38-2.56l8.56-3.15a107.22,107.22,0,0,0,22.06,35.64l-6.7,6.28a8.7,8.7,0,1,0,.66.7l6.7-6.27c.69.73,1.39,1.45,2.11,2.16A108.72,108.72,0,0,0,1259,460.76L1206.2,558h-9.47v2.78h-4.64v5.52h241.07v-5.52h-4.64V558h-9.47l-52.76-97.25A108.58,108.58,0,0,0,1386,446.2l8.55,9.12a8.6,8.6,0,1,0,.76-.6l-8.61-9.19c.73-.69,1.45-1.39,2.17-2.1a108,108,0,0,0,21.5-30.59l9.52,4.4a8.9,8.9,0,0,0-.27,2.14,8.75,8.75,0,1,0,.56-3.08l-9.41-4.34a107.29,107.29,0,0,0,9.61-40.78l10.25.33a8.75,8.75,0,1,0,8.74-9Zm-21.84,4.67c0,1,0,1.95,0,2.92l-30.19-1c0-.64,0-1.29,0-1.94a74.24,74.24,0,0,0-4.44-25.35l28.4-10.46A105,105,0,0,1,1417.53,367.19Zm-31.69,1.89-67.34-2.19a5.91,5.91,0,0,0-.2-1.27l63.23-23.28a73.09,73.09,0,0,1,4.34,24.85Q1385.87,368.14,1385.84,369.08Zm-146.43-3.78,67.34,2.18a5.44,5.44,0,0,0,.21,1.28L1243.73,392a72.86,72.86,0,0,1-4.35-24.85C1239.38,366.56,1239.39,365.92,1239.41,365.3Zm77.83-1.76,49.13-46.05a73.31,73.31,0,0,1,14.82,23.94L1318,364.71A6,6,0,0,0,1317.24,363.54Zm-.67-.71a5.88,5.88,0,0,0-1.27-.88l25.6-62.32a73.47,73.47,0,0,1,24.81,17.15Zm-2.17-1.25a5.65,5.65,0,0,0-1.1-.23l2.19-67.34a72.74,72.74,0,0,1,24.51,5.25Zm-2.07-.27a5.8,5.8,0,0,0-1.19.19L1288.74,298a73,73,0,0,1,23.89-4l1.89,0Zm-2.11.51a5.88,5.88,0,0,0-1.25.76l-46-49.14a73.48,73.48,0,0,1,24.89-15.17Zm-2,1.42a5.57,5.57,0,0,0-.75,1.05l-61.17-28.24a73.64,73.64,0,0,1,15.88-21.95Zm-1.16,1.93a6.09,6.09,0,0,0-.32,1.34l-67.33-2.19a72.52,72.52,0,0,1,6.48-27.38Zm.19,4.5a5.78,5.78,0,0,0,.57,1l-.4.74-48.58,45.52A73.28,73.28,0,0,1,1244.07,393Zm-1.3,4.41-30.5,56.21a73.94,73.94,0,0,1-16-12.69Zm3.31-2c.21.14.43.27.65.39l-25.59,62.32a71.17,71.17,0,0,1-7.19-3.49Zm1.55.76a5.65,5.65,0,0,0,1.1.23l-2.19,67.34a72.68,72.68,0,0,1-24.5-5.25Zm1.78,67.63-1.9,0,2.19-67.35a6,6,0,0,0,1.2-.18l22.39,63.55A72.92,72.92,0,0,1,1312.63,440.43Zm2.4-67.87a5.9,5.9,0,0,0,.92-.52l32.13,59.22a72.07,72.07,0,0,1-10.65,4.84Zm5.41,3.68,41.88,44.7a73.77,73.77,0,0,1-12.55,9.35Zm-1.83-3.38-1.21-2.23c.12-.17.24-.35.35-.54l61.16,28.23A73.48,73.48,0,0,1,1363,420.27Zm-.46-3.65a5.57,5.57,0,0,0,.32-1.34l67.34,2.18a72.72,72.72,0,0,1-6.49,27.39ZM1283.8,436.1l-11.49,28a104.19,104.19,0,0,1-10.27-5l14.44-26.61A72.7,72.7,0,0,0,1283.8,436.1Zm.9.37a74.13,74.13,0,0,0,25,5.36l-1,30.19a104.43,104.43,0,0,1-35.53-7.56Zm26,5.39c.64,0,1.29,0,1.94,0A74.23,74.23,0,0,0,1337,437.8l10.06,28.54a105.19,105.19,0,0,1-34.43,5.75c-1,0-2,0-2.93,0Zm27.23-4.38a74.36,74.36,0,0,0,10.85-4.94l14.44,26.61A103.72,103.72,0,0,1,1348,466Zm73-107-28.39,10.45a75,75,0,0,0-15.12-24.43l22.07-20.68A104.42,104.42,0,0,1,1411,330.47ZM1386.81,293c.69.69,1.36,1.39,2,2.1l-22.06,20.67a75,75,0,0,0-25.33-17.5l11.5-28A104.91,104.91,0,0,1,1386.81,293Zm-34.76-23.1-11.5,28a74.13,74.13,0,0,0-25-5.36l1-30.19A104.42,104.42,0,0,1,1352.05,269.91Zm-39.42-7.63c1,0,1.95,0,2.92.05l-1,30.18-1.94,0a74.34,74.34,0,0,0-24.38,4.09l-10-28.54A105.1,105.1,0,0,1,1312.63,262.28Zm-35.35,6.08,10.06,28.54a74.76,74.76,0,0,0-25.41,15.48l-20.68-22.07A104.38,104.38,0,0,1,1277.28,268.36ZM1238.45,293c.69-.69,1.39-1.37,2.09-2L1261.22,313a74.93,74.93,0,0,0-16.2,22.4l-27.48-12.68A104.91,104.91,0,0,1,1238.45,293Zm-21.32,30.63,27.48,12.68a74.11,74.11,0,0,0-6.62,28l-30.2-1A104.42,104.42,0,0,1,1217.13,323.64Zm-9.41,43.55c0-1,0-1.95,0-2.92l30.19,1c0,.64,0,1.29,0,1.94a74.23,74.23,0,0,0,4.43,25.35L1214,403A104.85,104.85,0,0,1,1207.72,367.19Zm6.58,36.72,28.4-10.46a74.75,74.75,0,0,0,15.12,24.43l-22.08,20.68A104.28,104.28,0,0,1,1214.3,403.91Zm24.15,37.46q-1-1-2-2.1l22.07-20.67a75.05,75.05,0,0,0,16.31,13l-14.44,26.62A105.42,105.42,0,0,1,1238.45,441.37ZM1416.84,558H1208.41l52.24-96.3a105.35,105.35,0,0,0,10.55,5.08l-3.69,9a8.55,8.55,0,0,0-2.65-.41,8.73,8.73,0,1,0,3.56.75l3.68-8.95a107.28,107.28,0,0,0,36.54,7.78l-.3,9.17a8.73,8.73,0,1,0,1,0l.3-9.17c1,0,2,0,3,0a108.05,108.05,0,0,0,35.4-5.92l3.14,8.92a8.77,8.77,0,1,0,.9-.36l-3.13-8.88a106.28,106.28,0,0,0,15.66-7.06Zm-51.94-99.82-14.44-26.62a75,75,0,0,0,12.86-9.57L1384,444.07A105.32,105.32,0,0,1,1364.9,458.19Zm21.91-16.82c-.7.69-1.39,1.37-2.1,2L1364,421.34a75.06,75.06,0,0,0,16.21-22.41l27.48,12.69A105.11,105.11,0,0,1,1386.81,441.37Zm21.31-30.63-27.47-12.69a74.25,74.25,0,0,0,6.62-27.95l30.19,1A104.27,104.27,0,0,1,1408.12,410.74Z" transform="translate(-0.38 -60.39)" style="fill:#969696"/><rect x="1460.11" y="375.71" width="112.44" height="164.75" style="fill:#969696"/><rect x="1556.09" y="439.77" width="112.44" height="99.77" style="fill:#969696"/><rect x="1120.04" y="425.12" width="63.08" height="83.72" style="fill:#969696"/><rect x="1516.33" y="219.04" width="79.53" height="321.42" style="fill:#969696"/><polygon points="1726.81 540.46 1621.91 540.46 1621.91 352.77 1701.44 352.77 1726.81 540.46" style="fill:#969696"/><rect x="1680.87" y="497.62" width="91.87" height="42.84" style="fill:#969696"/><rect x="1575.29" y="151.89" width="2.74" height="87.35" style="fill:#969696"/><rect x="1584.54" y="170.63" width="2.74" height="87.35" style="fill:#969696"/><rect x="1566.89" y="182.69" width="2.74" height="87.35" style="fill:#969696"/><rect x="1626.02" y="337.61" width="37.54" height="29.57" style="fill:#969696"/><rect x="1630.14" y="327.06" width="29.31" height="16.62" style="fill:#969696"/><rect x="1678.47" y="346.27" width="7.2" height="11.94" style="fill:#969696"/><rect x="1688.22" y="335.37" width="10.28" height="22.83" style="fill:#969696"/><rect x="1119.73" y="291.55" width="95.34" height="307.32" style="fill:#595959"/><rect x="1112.6" y="293.37" width="109.59" height="3.11" style="fill:#595959"/><rect x="1115.57" y="336.54" width="103.66" height="3.1" style="fill:#595959"/><rect x="1115.57" y="378.34" width="103.66" height="3.1" style="fill:#595959"/><rect x="1115.57" y="420.15" width="103.66" height="3.1" style="fill:#595959"/><rect x="1115.57" y="461.96" width="103.66" height="3.1" style="fill:#595959"/><rect x="1115.57" y="503.76" width="103.66" height="3.1" style="fill:#595959"/><rect x="1115.57" y="545.57" width="103.66" height="3.1" style="fill:#595959"/><rect x="1108.98" y="284.88" width="116.84" height="8.49" style="fill:#595959"/><rect x="1128.31" y="306.58" width="9.91" height="24.55" style="fill:#595959;opacity:0.29"/><rect x="1150.47" y="306.58" width="9.91" height="24.55" style="fill:#595959"/><rect x="1172.62" y="306.58" width="9.91" height="24.55" style="fill:#595959"/><rect x="1194.78" y="306.58" width="9.91" height="24.55" style="fill:#595959"/><rect x="1128.31" y="346.72" width="9.91" height="24.55" style="fill:#595959"/><rect x="1150.47" y="346.72" width="9.91" height="24.55" style="fill:#595959;opacity:0.29"/><rect x="1172.62" y="346.72" width="9.91" height="24.55" style="fill:#595959"/><rect x="1194.78" y="346.72" width="9.91" height="24.55" style="fill:#595959"/><rect x="1128.31" y="388.52" width="9.91" height="24.55" style="fill:#595959"/><rect x="1150.47" y="388.52" width="9.91" height="24.55" style="fill:#595959"/><rect x="1172.62" y="388.52" width="9.91" height="24.55" style="fill:#595959"/><rect x="1194.78" y="388.52" width="9.91" height="24.55" style="fill:#595959;opacity:0.29"/><rect x="1128.31" y="430.33" width="9.91" height="24.55" style="fill:#595959"/><rect x="1150.47" y="430.33" width="9.91" height="24.55" style="fill:#595959;opacity:0.29"/><rect x="1172.62" y="430.33" width="9.91" height="24.55" style="fill:#595959;opacity:0.29"/><rect x="1194.78" y="430.33" width="9.91" height="24.55" style="fill:#595959"/><rect x="1128.31" y="472.14" width="9.91" height="24.55" style="fill:#595959;opacity:0.29"/><rect x="1150.47" y="472.14" width="9.91" height="24.55" style="fill:#595959"/><rect x="1172.62" y="472.14" width="9.91" height="24.55" style="fill:#595959"/><rect x="1194.78" y="472.14" width="9.91" height="24.55" style="fill:#595959"/><rect x="1128.31" y="513.94" width="9.91" height="24.55" style="fill:#595959"/><rect x="1150.47" y="513.94" width="9.91" height="24.55" style="fill:#595959"/><rect x="1172.62" y="513.94" width="9.91" height="24.55" style="fill:#595959;opacity:0.29"/><rect x="1194.78" y="513.94" width="9.91" height="24.55" style="fill:#595959"/><rect x="1128.31" y="555.75" width="9.91" height="24.55" style="fill:#595959"/><rect x="1150.47" y="555.75" width="9.91" height="24.55" style="fill:#595959;opacity:0.29"/><rect x="1172.62" y="555.75" width="9.91" height="24.55" style="fill:#595959"/><rect x="1194.78" y="555.75" width="9.91" height="24.55" style="fill:#595959;opacity:0.29"/><rect x="1125.74" y="273.16" width="32.43" height="15.96" style="fill:#595959"/><rect x="1123.54" y="272.7" width="36.83" height="2.73" style="fill:#595959"/><polygon points="983.07 598.87 856.07 598.87 856.07 306.87 983.07 275.8 983.07 598.87" style="fill:#595959"/><rect x="850.49" y="301.73" width="11.16" height="297.14" style="fill:#595959"/><rect x="882.24" y="293.36" width="11.16" height="305.51" style="fill:#595959"/><rect x="913.99" y="284.66" width="11.16" height="314.21" style="fill:#595959"/><rect x="945.74" y="277.57" width="11.16" height="321.29" style="fill:#595959"/><rect x="977.49" y="270.04" width="11.16" height="328.83" style="fill:#595959"/><rect x="864.53" y="326.67" width="14.81" height="22.57" style="fill:#595959;opacity:0.29"/><rect x="896.29" y="326.67" width="14.81" height="22.57" style="fill:#595959;opacity:0.29"/><rect x="928.04" y="326.67" width="14.81" height="22.57" style="fill:#595959"/><rect x="959.79" y="326.67" width="14.81" height="22.57" style="fill:#595959;opacity:0.29"/><rect x="864.53" y="365.96" width="14.81" height="22.57" style="fill:#595959"/><rect x="896.29" y="365.96" width="14.81" height="22.57" style="fill:#595959"/><rect x="928.04" y="365.96" width="14.81" height="22.57" style="fill:#595959;opacity:0.29"/><rect x="959.79" y="365.96" width="14.81" height="22.57" style="fill:#595959;opacity:0.29"/><rect x="864.53" y="405.25" width="14.81" height="22.57" style="fill:#595959;opacity:0.29"/><rect x="896.29" y="405.25" width="14.81" height="22.57" style="fill:#595959;opacity:0.29"/><rect x="928.04" y="405.25" width="14.81" height="22.57" style="fill:#595959;opacity:0.29"/><rect x="959.79" y="405.25" width="14.81" height="22.57" style="fill:#595959"/><rect x="864.53" y="444.54" width="14.81" height="22.57" style="fill:#595959;opacity:0.29"/><rect x="896.29" y="444.54" width="14.81" height="22.57" style="fill:#595959"/><rect x="928.04" y="444.54" width="14.81" height="22.57" style="fill:#595959;opacity:0.29"/><rect x="959.79" y="444.54" width="14.81" height="22.57" style="fill:#595959;opacity:0.29"/><rect x="864.53" y="483.84" width="14.81" height="22.56" style="fill:#595959;opacity:0.29"/><rect x="896.29" y="483.84" width="14.81" height="22.56" style="fill:#595959;opacity:0.29"/><rect x="928.04" y="483.84" width="14.81" height="22.56" style="fill:#595959"/><rect x="959.79" y="483.84" width="14.81" height="22.56" style="fill:#595959;opacity:0.29"/><rect x="864.53" y="523.13" width="14.81" height="22.57" style="fill:#595959"/><rect x="896.29" y="523.13" width="14.81" height="22.57" style="fill:#595959"/><rect x="928.04" y="523.13" width="14.81" height="22.57" style="fill:#595959;opacity:0.29"/><rect x="959.79" y="523.13" width="14.81" height="22.57" style="fill:#595959;opacity:0.29"/><rect x="864.53" y="562.42" width="14.81" height="22.57" style="fill:#595959;opacity:0.29"/><rect x="896.29" y="562.42" width="14.81" height="22.57" style="fill:#595959"/><rect x="928.04" y="562.42" width="14.81" height="22.57" style="fill:#595959;opacity:0.29"/><rect x="959.79" y="562.42" width="14.81" height="22.57" style="fill:#595959"/><polygon points="493.76 320.86 493.76 323.89 490.74 323.89 490.74 332.53 543.88 332.53 543.88 598.87 456.68 598.87 456.68 346.43 456.68 332.53 456.68 323.89 453.51 323.89 453.51 320.86 493.76 320.86" style="fill:#595959"/><rect x="642.33" y="441.84" width="74.7" height="157.03" style="fill:#595959"/><rect x="316.75" y="405.84" width="60.72" height="193.03" style="fill:#595959"/><rect x="365.45" y="446.06" width="66.17" height="152.81" style="fill:#595959"/><rect x="338.6" y="398.09" width="26.85" height="23.1" style="fill:#595959"/><rect x="369.99" y="443.54" width="70.54" height="5.65" style="fill:#595959"/><rect x="424.51" y="511.6" width="74.19" height="87.27" style="fill:#595959"/><rect x="184.74" y="440.62" width="60.35" height="158.25" style="fill:#595959"/><rect x="132.37" y="519.48" width="79.39" height="79.39" style="fill:#595959"/><rect x="44.96" y="506.5" width="49.66" height="92.36" style="fill:#595959"/><rect x="84.97" y="569.94" width="117.37" height="28.93" style="fill:#595959"/><rect y="560.59" width="60.15" height="38.28" style="fill:#595959"/><rect x="245.09" y="540.46" width="93.51" height="58.41" style="fill:#595959"/><rect x="519.4" y="573.71" width="145.66" height="25.16" style="fill:#595959"/><rect x="777.65" y="573.71" width="145.66" height="25.16" style="fill:#595959"/><polygon points="659.39 499.84 604.02 499.84 580.61 586.29 659.39 586.29 659.39 499.84" style="fill:#595959"/><rect x="684.98" y="374.06" width="1.54" height="95.9" style="fill:#595959"/><rect x="692.69" y="406.51" width="2.06" height="56.59" style="fill:#595959"/><rect x="681.67" y="416.53" width="28.01" height="28.01" style="fill:#595959"/><rect x="676.94" y="414.36" width="37.1" height="2.51" style="fill:#595959"/><rect x="703.44" y="517.87" width="90.51" height="81" style="fill:#595959"/><rect x="776.64" y="428.71" width="58.15" height="156.28" style="fill:#595959"/><rect x="1003.73" y="458.09" width="92.9" height="140.78" style="fill:#595959"/><rect x="974.6" y="546.99" width="105.92" height="51.87" style="fill:#595959"/><rect x="1091.49" y="580.3" width="68.88" height="18.57" style="fill:#595959"/><rect x="1197.58" y="546.99" width="111.99" height="51.87" style="fill:#595959"/><rect x="1242.2" y="411.18" width="139.35" height="187.69" style="fill:#595959"/><rect x="1238.6" y="403.98" width="151.08" height="7.2" style="fill:#595959"/><rect x="1314.14" y="384.44" width="61.24" height="38.05" style="fill:#595959"/><rect x="1283.85" y="384.44" width="10.28" height="23.14" style="fill:#595959"/><rect x="1262.25" y="384.44" width="11.31" height="23.14" style="fill:#595959"/><rect x="1477.34" y="324.76" width="110.31" height="274.11" style="fill:#595959"/><rect x="1474.21" y="320.05" width="116.57" height="7.75" style="fill:#595959"/><rect x="1481.05" y="310.13" width="102.89" height="36.82" style="fill:#595959"/><rect x="1535.32" y="295.06" width="40.74" height="40.24" style="fill:#595959"/><polygon points="1552.48 306.4 1576.06 306.4 1576.06 285.22 1559.15 285.22 1552.48 306.4" style="fill:#595959"/><rect x="1564.27" y="267.64" width="2.29" height="47.18" style="fill:#595959"/><path d="M1563.75,325.59a2.08,2.08,0,1,0,2-2.45A2.27,2.27,0,0,0,1563.75,325.59Z" transform="translate(-0.38 -60.39)" style="fill:#595959"/><rect x="1572.55" y="485.71" width="49.36" height="113.16" style="fill:#595959"/><rect x="1431.93" y="430.54" width="56.3" height="168.33" style="fill:#595959"/><polygon points="1460.11 598.87 1380.8 598.87 1380.8 508.84 1447.74 538.49 1460.11 598.87" style="fill:#595959"/><rect x="1605.7" y="549.97" width="121.11" height="48.9" style="fill:#595959"/><rect x="1682.07" y="403.68" width="70.35" height="195.19" style="fill:#595959"/><rect x="1735.97" y="562.42" width="116.55" height="36.44" style="fill:#595959"/><rect x="1678.47" y="400.11" width="77.17" height="6.4" style="fill:#595959"/><rect x="1741.45" y="372.57" width="1.54" height="39.33" style="fill:#595959"/><rect x="1731.17" y="377.55" width="1.54" height="31.55" style="fill:#595959"/><polygon points="1778.48 477.21 1747.11 477.21 1747.11 566.64 1791.85 566.64 1778.48 477.21" style="fill:#595959"/></g></svg>