<svg
    id="Capa_1"
    data-name="Capa 1"
    xmlns="http://www.w3.org/2000/svg"
    xmlns:xlink="http://www.w3.org/1999/xlink"
    viewBox="0 0 72.86 75.99"
><defs><linearGradient
            id="Degradado_sin_nombre_355"
            x1="3.72"
            y1="38.17"
            x2="68.72"
            y2="38.17"
            gradientUnits="userSpaceOnUse"
        ><stop offset="0" stop-color="#fdc402" /><stop
                offset="0.66"
                stop-color="#f8ac15"
            /><stop
                offset="1"
                stop-color="#f59e21"
            /></linearGradient><radialGradient
            id="Degradado_sin_nombre_565"
            cx="36.22"
            cy="38.67"
            r="29"
            gradientUnits="userSpaceOnUse"
        ><stop offset="0.8" stop-color="#fff" /><stop
                offset="0.86"
                stop-color="#fbfbfb"
            /><stop offset="0.92" stop-color="#eee" /><stop
                offset="0.98"
                stop-color="#dadada"
            /><stop
                offset="1"
                stop-color="#cfcfcf"
            /></radialGradient><linearGradient
            id="Degradado_sin_nombre_355-2"
            x1="23"
            y1="38.42"
            x2="49.44"
            y2="38.42"
            xlink:href="#Degradado_sin_nombre_355"
        /><linearGradient
            id="Degradado_sin_nombre_355-3"
            x1="33.65"
            y1="56.57"
            x2="38.85"
            y2="56.57"
            xlink:href="#Degradado_sin_nombre_355"
        /><linearGradient
            id="Degradado_sin_nombre_355-4"
            x1="35.41"
            y1="60.1"
            x2="37.23"
            y2="60.1"
            xlink:href="#Degradado_sin_nombre_355"
        /><linearGradient
            id="Degradado_sin_nombre_355-5"
            x1="26.44"
            y1="34.88"
            x2="46.08"
            y2="34.88"
            xlink:href="#Degradado_sin_nombre_355"
        /><linearGradient
            id="Degradado_sin_nombre_355-6"
            x1="31.89"
            y1="47.23"
            x2="33.71"
            y2="47.23"
            xlink:href="#Degradado_sin_nombre_355"
        /><linearGradient
            id="Degradado_sin_nombre_355-7"
            x1="35.41"
            y1="47.23"
            x2="37.23"
            y2="47.23"
            xlink:href="#Degradado_sin_nombre_355"
        /><linearGradient
            id="Degradado_sin_nombre_355-8"
            x1="38.93"
            y1="47.33"
            x2="40.56"
            y2="47.33"
            xlink:href="#Degradado_sin_nombre_355"
        /></defs><circle
        cx="36.22"
        cy="38.17"
        r="32.5"
        style="fill:url(#Degradado_sin_nombre_355)"
    /><circle
        cx="36.22"
        cy="38.67"
        r="29"
        style="fill:url(#Degradado_sin_nombre_565)"
    /><path
        d="M47.67,54H24.8a29.94,29.94,0,0,0,0,3,2.55,2.55,0,0,0,2.63,2.24c1.47,0,2.94,0,4.4,0,.65,0,1.25.09,1.25.89s-.6.89-1.24.88c-1.44,0-2.88,0-4.32,0A4.37,4.37,0,0,1,23,56.49q0-18.06,0-36.12a4.36,4.36,0,0,1,4.51-4.51q8.72,0,17.44,0a4.34,4.34,0,0,1,4.47,4.45q0,18.11,0,36.21A4.37,4.37,0,0,1,45,61c-1.5,0-3,0-4.49,0-.64,0-1.14-.18-1.13-.91s.5-.86,1.1-.86c1.47,0,2.94,0,4.41,0a2.64,2.64,0,0,0,2.82-2.8C47.68,55.62,47.67,54.84,47.67,54Zm-.06-1.84V23H24.82V52.13Zm-22.8-31H47.62c.21-2.34-.82-3.47-3.12-3.47H28C25.65,17.62,24.65,18.7,24.81,21.09Z"
        style="fill:url(#Degradado_sin_nombre_355-2)"
    /><path
        d="M36.28,55.7a6.55,6.55,0,0,1,1.66,0c.35.1.61.55.91.84-.3.29-.58.81-.9.84a20.34,20.34,0,0,1-3.49,0,1.24,1.24,0,0,1-.81-.89c0-.22.47-.71.8-.78a8,8,0,0,1,1.83,0Z"
        style="fill:url(#Degradado_sin_nombre_355-3)"
    /><path
        d="M37.22,60.33c-.35.22-.74.64-1,.58a1.24,1.24,0,0,1-.77-.89c0-.23.52-.73.82-.74s.67.42,1,.65Z"
        style="fill:url(#Degradado_sin_nombre_355-4)"
    /><path
        d="M36,39.37c-.6.64-1.19,1.3-1.82,1.91a2.6,2.6,0,0,1-3.91,0C29.11,40.16,28,39,26.82,37.8c-.24-.26-.46-.81-.34-1s.65-.45,1-.61c.14-.07.34,0,.52,0,1.29,0,2.72.31,3.83-.14s1.84-1.67,2.74-2.56c1.56-1.55,3.11-3.12,4.67-4.66A5.81,5.81,0,0,1,43.7,27a3.61,3.61,0,0,1,1,.19A1.61,1.61,0,0,1,45.46,30c-1,1.08-2.13,2.1-3.16,3.19a2.76,2.76,0,0,0-.64,1.19c-.36,1.57-.62,3.17-1,4.73a3.56,3.56,0,0,1-.76,1.42A16,16,0,0,1,38,42.46a1.31,1.31,0,0,1-1.07.3,1.33,1.33,0,0,1-.55-1,23.4,23.4,0,0,1,0-2.37Zm8.12-10.6a4.25,4.25,0,0,0-3.75,1.35c-2.33,2.32-4.67,4.62-7,7a2.33,2.33,0,0,1-2,.81,18,18,0,0,0-1.8,0l-.13.23c.59.55,1.19,1.1,1.77,1.66.85.82,1.13.84,2,0L43.54,29.45C43.72,29.27,43.87,29.07,44.14,28.77Zm-6,11c1.16-1.07.92-2.37,1.32-3.59C37.87,37,38,38.29,38.17,39.81Z"
        style="fill:url(#Degradado_sin_nombre_355-5)"
    /><path
        d="M33.71,47.41c-.34.23-.7.67-1,.63a1.2,1.2,0,0,1-.81-.84c0-.23.47-.76.77-.78s.69.37,1,.58Z"
        style="fill:url(#Degradado_sin_nombre_355-6)"
    /><path
        d="M37.22,47.45c-.35.22-.73.65-1,.59a1.22,1.22,0,0,1-.78-.88c0-.23.51-.74.81-.74s.68.4,1,.63Z"
        style="fill:url(#Degradado_sin_nombre_355-7)"
    /><path
        d="M39.51,48.23c-.21-.35-.63-.74-.58-1a1.26,1.26,0,0,1,.9-.77c.23,0,.73.52.73.82s-.41.67-.64,1Z"
        style="fill:url(#Degradado_sin_nombre_355-8)"
    /></svg>
