<svg id="Capa_1" data-name="Capa 1" xmlns="http://www.w3.org/2000/svg" xmlns:xlink="http://www.w3.org/1999/xlink" viewBox="0 0 65 65"><defs><linearGradient id="Degradado_sin_nombre_526" y1="32.5" x2="65" y2="32.5" gradientUnits="userSpaceOnUse"><stop offset="0" stop-color="#ed6f2a"/><stop offset="0.9" stop-color="#f1872b"/><stop offset="1" stop-color="#f28a2b"/></linearGradient><radialGradient id="Degradado_sin_nombre_565" cx="32.5" cy="33" r="29" gradientUnits="userSpaceOnUse"><stop offset="0.8" stop-color="#fff"/><stop offset="0.86" stop-color="#fbfbfb"/><stop offset="0.92" stop-color="#eee"/><stop offset="0.98" stop-color="#dadada"/><stop offset="1" stop-color="#cfcfcf"/></radialGradient><linearGradient id="Degradado_sin_nombre_526-2" x1="16.29" y1="37.24" x2="35.88" y2="37.24" xlink:href="#Degradado_sin_nombre_526"/><linearGradient id="Degradado_sin_nombre_526-3" x1="29.43" y1="36.6" x2="58.54" y2="36.6" xlink:href="#Degradado_sin_nombre_526"/><linearGradient id="Degradado_sin_nombre_526-4" x1="32.28" y1="36.6" x2="55.74" y2="36.6" xlink:href="#Degradado_sin_nombre_526"/><linearGradient id="Degradado_sin_nombre_526-5" x1="38.75" y1="36.61" x2="49.3" y2="36.61" xlink:href="#Degradado_sin_nombre_526"/><linearGradient id="Degradado_sin_nombre_526-6" x1="22.58" y1="24.03" x2="34.07" y2="24.03" xlink:href="#Degradado_sin_nombre_526"/></defs><circle cx="32.5" cy="32.5" r="32.5" style="fill:url(#Degradado_sin_nombre_526)"/><circle cx="32.5" cy="33" r="29" style="fill:url(#Degradado_sin_nombre_565)"/><path d="M26.63,51.09H18.56c-1.46,0-2.23-.72-2.18-2.16.05-1.22-.33-2.48.37-3.63a.31.31,0,0,0,0-.23c-.7-1.24-.4-2.6-.31-3.87a19.87,19.87,0,0,0,0-2.56c-.07-1.28-.37-2.63.3-3.88a.44.44,0,0,0,0-.3,7.56,7.56,0,0,1,0-5c0-.09.07-.23,0-.3-.7-1.24-.3-2.58-.35-3.88a1.8,1.8,0,0,1,1.86-1.89,13.9,13.9,0,0,1,2.14,0c.26,0,.5.38.74.58-.23.21-.45.56-.72.6a8.31,8.31,0,0,1-1.8,0c-.69,0-1,.24-1,1s0,1.43,0,2.14.31,1,1,.95c3.38,0,6.75,0,10.13,0a1.58,1.58,0,0,1,.73.05.92.92,0,0,1,.41.61.72.72,0,0,1-.41.52,2.18,2.18,0,0,1-.81.06H18.78c-1.07,0-1.17.11-1.17,1.19q0,.78,0,1.56c0,1.2.08,1.28,1.24,1.28h8.24a1.77,1.77,0,0,1,.73,0c.21.1.51.37.49.54a1,1,0,0,1-.5.63,1.55,1.55,0,0,1-.72.05H18.85c-1.17,0-1.24.08-1.24,1.27q0,.83,0,1.65c0,1,.13,1.1,1.09,1.1h8.48c.22,0,.48-.08.65,0a3.76,3.76,0,0,1,.72.61c-.24.21-.47.57-.73.59-.95.07-1.92,0-2.88,0H18.77c-1,0-1.15.12-1.16,1.12,0,.6,0,1.21,0,1.81,0,1,.12,1.1,1.09,1.1h11c.48,0,1,.1.9.67,0,.24-.58.56-.9.56-3.57,0-7.14,0-10.71,0-1.38,0-1.41,0-1.41,1.43,0,.5,0,1,0,1.48,0,1,.13,1.13,1.16,1.13H34.42a1.56,1.56,0,0,1,.65,0c.3.14.76.35.8.59.08.52-.37.63-.83.63Z" transform="translate(-4.04 -5.22)" style="fill:url(#Degradado_sin_nombre_526-2)"/><path d="M29.43,36.57A14.6,14.6,0,0,1,50.8,23.74a2.23,2.23,0,0,1,.76.47.91.91,0,0,1,.17.77c-.1.17-.5.22-.76.23s-.34-.17-.51-.25c-5.07-2.58-10-2.34-14.54,1.13a12.49,12.49,0,0,0-4.78,13.69c1.38,5.55,5.14,8.9,10.77,9.93a13.19,13.19,0,0,0,13.94-7.06,13.33,13.33,0,0,0-2.41-15.44c-.36-.36-1.07-.74-.5-1.32s1,.11,1.39.49A14.53,14.53,0,1,1,29.69,39C29.56,38.21,29.52,37.39,29.43,36.57Z" transform="translate(-4.04 -5.22)" style="fill:url(#Degradado_sin_nombre_526-3)"/><path d="M32.28,36.57A11.74,11.74,0,1,1,35.83,45a4.11,4.11,0,0,1-.29-.3c-.31-.34-.76-.71-.28-1.18s.83,0,1.16.32a10.15,10.15,0,0,0,10.65,2.77,10.1,10.1,0,0,0,7.28-8.25,10.5,10.5,0,1,0-19.79,2.8c.2.41.43.86-.11,1.13s-.81-.19-1-.63A11.66,11.66,0,0,1,32.28,36.57Z" transform="translate(-4.04 -5.22)" style="fill:url(#Degradado_sin_nombre_526-4)"/><path d="M44.36,30.75c.37-.49-.3-1.59.77-1.55s.39,1,.64,1.53c2.29.59,3.5,2.83,1.79,5.18a3.45,3.45,0,0,1-1.75,6.43c-.32.58.32,1.63-.72,1.64s-.36-1.07-.74-1.61H42.89a2.83,2.83,0,0,1,0,.92,2.87,2.87,0,0,1-.59.73,3.06,3.06,0,0,1-.6-.72,3.06,3.06,0,0,1,0-1H39.79c-.48,0-1,0-1-.65s.5-.61.95-.63A1.49,1.49,0,0,0,40,41v-8.9a1.74,1.74,0,0,1-.63-.09,4.44,4.44,0,0,1-.63-.6c.21-.2.42-.54.65-.56a18,18,0,0,1,2.07,0c.44-.53-.22-1.63.81-1.61s.44,1,.69,1.55ZM41.31,41c1.67,0,3.26,0,4.84,0a2,2,0,0,0,1.89-2,2,2,0,0,0-1.72-2.25c-1.65-.11-3.31,0-5,0Zm0-9v3.49c1.41,0,2.78,0,4.14,0a1.7,1.7,0,0,0,1.68-1.69A1.72,1.72,0,0,0,45.44,32C44.1,32,42.76,32,41.32,32Z" transform="translate(-4.04 -5.22)" style="fill:url(#Degradado_sin_nombre_526-5)"/><path d="M28.31,24.66H23.53c-.46,0-1,0-1-.64s.49-.61,1-.61c3.22,0,6.43,0,9.64,0,.31,0,.85.32.89.55.09.58-.42.67-.89.67Z" transform="translate(-4.04 -5.22)" style="fill:url(#Degradado_sin_nombre_526-6)"/></svg>