<svg id="Capa_1" data-name="Capa 1" xmlns="http://www.w3.org/2000/svg" xmlns:xlink="http://www.w3.org/1999/xlink" viewBox="0 0 65 65"><defs><linearGradient id="Degradado_sin_nombre_395" y1="32.5" x2="65" y2="32.5" gradientUnits="userSpaceOnUse"><stop offset="0" stop-color="#00939c"/><stop offset="1" stop-color="#54b683"/></linearGradient><radialGradient id="Degradado_sin_nombre_565" cx="32.5" cy="32.5" r="29" gradientUnits="userSpaceOnUse"><stop offset="0.8" stop-color="#fff"/><stop offset="0.86" stop-color="#fbfbfb"/><stop offset="0.92" stop-color="#eee"/><stop offset="0.98" stop-color="#dadada"/><stop offset="1" stop-color="#cfcfcf"/></radialGradient><linearGradient id="Degradado_sin_nombre_395-2" x1="13.7" y1="35.22" x2="59.7" y2="35.22" xlink:href="#Degradado_sin_nombre_395"/><linearGradient id="Degradado_sin_nombre_395-3" x1="27.95" y1="39.43" x2="31.1" y2="39.43" xlink:href="#Degradado_sin_nombre_395"/><linearGradient id="Degradado_sin_nombre_395-4" x1="42.26" y1="39.43" x2="45.41" y2="39.43" xlink:href="#Degradado_sin_nombre_395"/></defs><circle cx="32.5" cy="32.5" r="32.5" style="fill:url(#Degradado_sin_nombre_395)"/><circle cx="32.5" cy="32.5" r="29" style="fill:url(#Degradado_sin_nombre_565)"/><path d="M34.8,20.18c.78-2,2.34-2.25,4.17-2.22V19.3a9.67,9.67,0,0,0-2.3.9c-.36.25-.39,1-.64,1.73.6,0,1,0,1.35,0a45.86,45.86,0,0,1,7.15.51A14.41,14.41,0,0,1,55.75,36.52c.07,4,0,8.1,0,12.15v1.08H59.7v1.61H51.85a4.34,4.34,0,0,0-.05.53c-.06,1.85-.06,1.85-1.95,1.85H43c-1.42,0-1.53-.11-1.56-1.53,0-.24,0-.48,0-.78H31.92c0,.38,0,.75,0,1.13,0,.82-.33,1.2-1.19,1.19-2.64,0-5.28,0-7.92,0-1,0-1.23-.24-1.24-1.21,0-.36,0-.71,0-1.14H13.7v-1.6h3.89v-1c0-4,0-8,0-12A14.66,14.66,0,0,1,30.13,22.13c1.15-.19,2.33-.19,3.62-.28-.84-2.47-2.8-3.28-5.12-3.65l.24-1.51A7.35,7.35,0,0,1,34.8,20.18ZM21.63,49.74c.95-1.89,1.68-2.35,3.76-2.35,1.11,0,2.22,0,3.33,0a3.19,3.19,0,0,1,2.89,1.81,1.19,1.19,0,0,0,.85.53q4.23.06,8.46,0a1.15,1.15,0,0,0,.8-.47,3.24,3.24,0,0,1,3.12-1.89c1,0,2,0,3.06,0a3.42,3.42,0,0,1,3.79,2.32h2.47v-.86c0-4,0-7.92,0-11.88A13.13,13.13,0,0,0,40.81,23.52c-2.7,0-5.4,0-8.1,0A13.14,13.14,0,0,0,19.2,37.06q0,5.85,0,11.7v1Zm8.69,2.37c0-.6,0-1.1,0-1.6A1.53,1.53,0,0,0,28.73,49c-1.34,0-2.69-.05-4,0a1.5,1.5,0,0,0-1.51,1.57c0,.49,0,1,0,1.52h1.59V49.81h1.6v1.45c0,.89,0,.89.82.72V49.83h1.59v2.28Zm19.87,0c0-.53,0-1,0-1.47A1.52,1.52,0,0,0,48.64,49c-1.34-.06-2.69,0-4,0a1.51,1.51,0,0,0-1.55,1.53c0,.5,0,1,0,1.54h1.63V49.83h1.58v2.26l.36.09c.88-.54,0-1.67.52-2.36h1.49V52.1Z" transform="translate(-4.2 -6)" style="fill:url(#Degradado_sin_nombre_395-2)"/><path d="M31.1,39.46a1.58,1.58,0,1,1-1.56-1.6A1.55,1.55,0,0,1,31.1,39.46Z" transform="translate(-4.2 -6)" style="fill:url(#Degradado_sin_nombre_395-3)"/><path d="M43.87,37.86a1.57,1.57,0,1,1-1.61,1.55A1.55,1.55,0,0,1,43.87,37.86Z" transform="translate(-4.2 -6)" style="fill:url(#Degradado_sin_nombre_395-4)"/></svg>