<svg id="Capa_1" data-name="Capa 1" xmlns="http://www.w3.org/2000/svg" xmlns:xlink="http://www.w3.org/1999/xlink" viewBox="0 0 65 65"><defs><linearGradient id="Degradado_sin_nombre_78" y1="32.5" x2="65" y2="32.5" gradientUnits="userSpaceOnUse"><stop offset="0" stop-color="#0093c6"/><stop offset="1" stop-color="#4fbfd2"/></linearGradient><radialGradient id="Degradado_sin_nombre_565" cx="32.5" cy="32.5" r="29" gradientUnits="userSpaceOnUse"><stop offset="0.8" stop-color="#fff"/><stop offset="0.86" stop-color="#fbfbfb"/><stop offset="0.92" stop-color="#eee"/><stop offset="0.98" stop-color="#dadada"/><stop offset="1" stop-color="#cfcfcf"/></radialGradient><linearGradient id="Degradado_sin_nombre_78-2" x1="14.68" y1="36.7" x2="53.65" y2="36.7" xlink:href="#Degradado_sin_nombre_78"/><linearGradient id="Degradado_sin_nombre_78-3" x1="27.98" y1="35.04" x2="35.59" y2="35.04" xlink:href="#Degradado_sin_nombre_78"/><linearGradient id="Degradado_sin_nombre_78-4" x1="34.81" y1="35.04" x2="41.65" y2="35.04" xlink:href="#Degradado_sin_nombre_78"/><linearGradient id="Degradado_sin_nombre_78-5" x1="21.91" y1="35.04" x2="28.74" y2="35.04" xlink:href="#Degradado_sin_nombre_78"/></defs><circle cx="32.5" cy="32.5" r="32.5" style="fill:url(#Degradado_sin_nombre_78)"/><circle cx="32.5" cy="32.5" r="29" style="fill:url(#Degradado_sin_nombre_565)"/><path d="M45.25,20c.79-.81,1.48-1.54,2.2-2.26s1.29-.71,1.8-.22.45,1.2-.21,1.86-1.45,1.41-2.29,2.22c.8.76,1.51,1.44,2.24,2.1a1.49,1.49,0,0,1,.56,1.55A1.65,1.65,0,0,0,50,26.79c1.1,1.39,2.17,2.81,3.19,4.26a2.6,2.6,0,0,1,.47,1.38q0,9.66,0,19.32a4.16,4.16,0,0,1-4.45,4.41q-8.1,0-16.2,0A4.18,4.18,0,0,1,28.54,52a1,1,0,0,0-.22-.6L19,42.12c-1-1-2-2-3-3a4.12,4.12,0,0,1,0-6q6.85-6.91,13.77-13.76a2.67,2.67,0,0,1,1.35-.59c3.45-.52,6.92-1,10.37-1.5a1.64,1.64,0,0,1,1.58.5C43.73,18.51,44.46,19.21,45.25,20Zm-1.61,1.52c-.55-.53-1.07-1-1.52-1.48a1.2,1.2,0,0,0-1.21-.4c-3.06.45-6.12.88-9.17,1.35a1.5,1.5,0,0,0-.84.42Q24.28,28,17.72,34.59a1.91,1.91,0,0,0,0,3q5.72,5.74,11.45,11.46a1.94,1.94,0,0,0,3.06,0Q38.81,42.54,45.35,36a1.85,1.85,0,0,0,.5-1c.47-3.11.9-6.22,1.33-9.33a.86.86,0,0,0-.11-.62c-.57-.64-1.18-1.23-1.74-1.81L43.52,25a5.4,5.4,0,0,1,.89.62,1.12,1.12,0,0,1,0,1.64,1.1,1.1,0,0,1-1.58,0C41.74,26.18,40.66,25.1,39.6,24a1.13,1.13,0,1,1,1.6-1.61,7.67,7.67,0,0,1,.68.85ZM30.85,52.12A1.9,1.9,0,0,0,33,53.88H49c1.67,0,2.35-.68,2.35-2.34,0-5.9-.08-11.8,0-17.7,0-2.07-1.52-3-2.37-4.39-.38,2.12-.71,4.19-1,6.27a2.69,2.69,0,0,1-.84,1.64Q40.8,43.77,34.39,50.21A5.12,5.12,0,0,1,30.85,52.12Z" transform="translate(-4.15 -4.83)" style="fill:url(#Degradado_sin_nombre_78-2)"/><path d="M34.48,25.84c.86,0,1.32.75,1,1.7-.58,1.78-1.19,3.55-1.78,5.32Q32,37.95,30.34,43c-.05.15-.09.29-.15.43a1.12,1.12,0,0,1-1.46.72,1.1,1.1,0,0,1-.68-1.47c.75-2.31,1.53-4.61,2.3-6.92q1.47-4.43,2.93-8.85C33.48,26.32,33.77,25.85,34.48,25.84Z" transform="translate(-4.15 -4.83)" style="fill:url(#Degradado_sin_nombre_78-3)"/><path d="M41.65,35.08a3.42,3.42,0,0,1-3.47,3.38A3.48,3.48,0,0,1,34.81,35a3.43,3.43,0,0,1,3.46-3.39A3.37,3.37,0,0,1,41.65,35.08Zm-2.28,0a1.09,1.09,0,0,0-1.07-1.13A1.14,1.14,0,0,0,37.1,35a1.17,1.17,0,0,0,1.17,1.15A1.13,1.13,0,0,0,39.37,35.05Z" transform="translate(-4.15 -4.83)" style="fill:url(#Degradado_sin_nombre_78-4)"/><path d="M25.32,31.63A3.37,3.37,0,0,1,28.74,35a3.42,3.42,0,0,1-3.43,3.42,3.46,3.46,0,0,1-3.4-3.39A3.41,3.41,0,0,1,25.32,31.63ZM26.45,35a1.07,1.07,0,0,0-1.08-1.11A1.12,1.12,0,0,0,24.2,35a1.16,1.16,0,0,0,1.18,1.13A1.13,1.13,0,0,0,26.45,35Z" transform="translate(-4.15 -4.83)" style="fill:url(#Degradado_sin_nombre_78-5)"/></svg>