<svg
    id="Capa_1"
    data-name="Capa 1"
    xmlns="http://www.w3.org/2000/svg"
    viewBox="0 0 44.93 35.3"
><path
        d="M33.21,27.67,24,20.56a.92.92,0,0,0-1.09,0l-9.08,7.26a.85.85,0,0,0,0,1.37l9,7.11a.91.91,0,0,0,1.09,0L33.24,29A.88.88,0,0,0,33.21,27.67Z"
        transform="translate(-1.11 -1.18)"
        style="fill:#f5a153"
    /><path
        d="M22.91,1.36,1.43,18.49a.9.9,0,0,0,0,1.37L6.9,24.08a.84.84,0,0,0,1.06,0l15-11.9a.84.84,0,0,1,1.06,0L39.16,23.9a.89.89,0,0,0,1.07,0l5.49-4.37a.89.89,0,0,0,0-1.37L24,1.36A.87.87,0,0,0,22.91,1.36Z"
        transform="translate(-1.11 -1.18)"
        style="fill:#f5a153"
    /></svg>
