<svg id="Capa_1" data-name="Capa 1" xmlns="http://www.w3.org/2000/svg" viewBox="0 0 978.1 117.8"><g id="map" style="opacity:0.37"><g style="opacity:0.07"><path d="M448.36,41.61l-9.3-.16-.17-.75L431,42.27l-13.22,1.26-7.76,2-13.32,1.79-4.27-.07-3,1.22-6.8.63L379,50.52l-8.23.39-11.62,2.24-1.77.72-1.77.71-3.28,1.33-3.28,1.33-8.19,1.34-3.2.48-1.26.51-4.54,1.84,1.08.87.95.76a1.47,1.47,0,0,1-.84,1.16l-1.48.59,1.16.68-1.44,1.89,1.94,0L334.51,69a41.62,41.62,0,0,0,6.17-.53c2.42-.49,9.69-.9,9.69-.9l2.71,1.12,8.61-.71,13-.51,6.59.11-1.07,1.58,8.26-.07.69.86-4,1.64-5.87,1.06L373,74.05l-2.68.59v2.13l-4.2,3.33-4.29,1.73-1.77.72-5.8,2.35-9.74,1.32-12.34,3.19-6.9,1.16L323.1,93.4l1.61,1-9.18,2.07-4.14,2.17,1.35,1.09-4.52,2.15-1.85,1.57-6.4,1,.56.76,8.91.15,8.88-.48,7.48-.09,15.63-2.07,13.33-1.79s7.83-.71,8.71-1.23,5.82-2.35,5.82-2.35L378,97l7.26-1.79L390.84,93l15.81-1.74,10.25-.78L428,88.74A57.76,57.76,0,0,1,434.85,86c1.53-.29,6.23-1.7,6.23-1.7l1.56-2.1,10.49-1.63-4.55-.61,16-1.75,14.29-2.83,8.21-1L508,71l18.59-2.77,12.05-3.08-7.58.61-5.54.12-5.53.44-2.73-.37s-4.9,0-3.89-.39l4.29-1.73s.33-.95-1.22-1-6.74-.54-6.74-.54l5.69-2.14L515,58.31l7.1-2.22a3.36,3.36,0,0,1,.55-1.69c.49-.52,5.54-2.56,5.54-2.56l1.07-1.58,2.66-.91,4.79.19-1.19,1.78a17.69,17.69,0,0,1-2.14,1c-1.26.51,1.27,1.94,1.27,1.94l-4.33,1.1-1.09,1.25a3.31,3.31,0,0,1-.55,1.7c-.48.52-.16,1.7-.16,1.7L522,62.69l-1.13.62,6.2.11,8.86-.8,8.46-1.14,8.78.05,4.46-1,6.18-.21,10.4-1.09,5.35-1.19,10.38-1.41,3.53-1.43s-3.37-.28-3-.59,4-2.27,4-2.27l-10.22,1.84-11.48.23L576,53.09l1.13-2.74L584,48.87l1.89,1.52-1.42,2.21,13-.84S595.24,53,596.4,53s9.83.28,9.83.28l11.36,0,6.6.44-2.47,2-1.19,1.79,4.27.07,5-.23-5.05,2-8.58,3.47-3.54,3.56-6.25,3.18,9.69.16,8.62-2.17L633,64.2l8.58-1.34L657.13,61l8.2-1L673,58.51l13.14-.41,1.29,2.25-4,1.64-3.54,1.43,1.45.55,5-.23,5.23-1-4.62,2.69-3.28,1.32-.59,1.06-2.52,1-6,1.28-4.46,1,.86,1.62-5.3,2.14L662.88,76l3.81,1.24,5.39-.55,2.52-1,3-1.22-.19-1.07-.55-.75-1.84-.57,4.22-1.22.44-.83,11.55-3.52,1.19.66,1.59.66.56.76-2.78,1.12,2.72,0-3.25,1.31,3.1.06,9.28-2,10.16-.67s0-.32,3.53-1.43,4-1.63,4-1.63l2.36-.81-1.44-1.2.57-1.37L728,61l7.38-1,4,.71,5.1-1.08,7.75.13,8.11-.5L769.38,58l13-2.33,11.21-2.57-1.08-.87,5.88-1.07-.7-.87,1.36-1-2.38-1,3-1.22,9.35-1.33-1.94,0-1.94,0-3.48-.06,0-.64-2.71,0,7.93-1.25,4.83-1.3s4.9,0,3.39.59-7.51,1.89-7.51,1.89l10.43-.45.56.75.31.86-1.35,1.36-3.78,1.53,9.11-.91,4.87-.66,3-1.22-1.73-.78.07-1.17,2.42-.49,4.23-.89,5.86-1.06,3.1.06L851,41l7.41-1.36,9.68-2.28,2.78-1.12,3.79-1.53-1-.76L877.12,32,873.63,32l-5.71-.63-3.1-.06,1.07-1.58,7.53-1.57,6.28-.74,14.17-.5,5.81.1,3.92.71,2.32,0,3.54-1.43,4.32-1.09,7,.12,2.11.78,4.09-.68.44,1-1.26.51a16.15,16.15,0,0,0-3.33.37c-.76.3-5.22,1.29-5.22,1.29l-5.53.44.34,1.49.87,1.62,1,2,.18,1.06,4.3-1.73,4.88-.34,1.77-.72,2-.81,2.52-1,2.53-1-2.85-.16-2.11-.78,2-.82,4-.78,1.45.56L938.8,27l2.57-.06,3.88.07,8.84-1.12,5.82.1,1.26-.51,1.26-.51-1.87-1.21,4-.78,7,.12,2.33,0,1.45.56a22.65,22.65,0,0,0,6.65-1.06l-.29-.53-9.3-.16-3.91-.71-5.21-.84a64.06,64.06,0,0,0-8.08-1.31c-2.32,0-7-1.08-8.58-1.11l-7.75-.13s-5.41.22-10.57.35-10.33-.08-11.88-.1l-11.62-.2-7.37-.13c-1.16,0-9.72-.81-9.72-.81s-2.48-.47-3.14-.69-7.55-1.2-8.72-1.22-4.53-.29-6.08-.32l-1.55,0-11,1.52A7.26,7.26,0,0,0,852,15.21l-2.68.59-7.65-.66-9.22-1-5-.08-6.2-.11-13.57-.24-8.52-.15-4.37.46a16.63,16.63,0,0,1,4.21-.88l3.88.06s4.58-1.19,3.78-1.53a12.47,12.47,0,0,0-4.3-.71c-1.41.08-6.16-.13-6.16-.13l-5.81-.1-6.59-.11-4.4.47-4,.14-8.89.17-6.69.42-5,.23-8.65.06L743.44,12l-3,.38-1.19,1.79-5.69-.32-4.27-.07-4.2-1.24-4.29,1.73,3.95.28,1,1-7.59,1.68-7.79.29,4.85-1,3.53-1.43L717,13.92l-3-.9-4.25.25-3.69,1,.46,1.28-5.17-.2-5.31-.3-3.76-.28-5.93.11L679,14.54l-11.16,1.08s-8.38.28-10.69.56a51.25,51.25,0,0,1-6.31.11l1.37-.72-5.1,1.08s-1.41.08-3.07.2-3.55.27-4.51.41a46.71,46.71,0,0,1-4.88.34L627.81,17l-1.59-.67,7.58-.61,3.16,1,7.7-.82-4.94-.62-6.65-1.07a3.41,3.41,0,0,0-2.63-.9l-5-.09a70.39,70.39,0,0,0-7.63-.34l-5.41.22L604,12.7s-7.48.09-9.4.37-10.11,1.64-10.11,1.64-9.52.58-11.44.86-5.77.54-8.59,1-9.25.8-10.91,1-3.86.26-5,.56-5.58,1.6-6.85,2.11S538,21.56,538,21.56l4.91,0,9.65-.47c.68.54-.41,1.8-.41,1.8l-.61.74.93.44s1.42-.08,5.14-.44,7.56-.94,9.09-1.23,6-.64,6-.64L575.06,20s-.43-.64,4.6-.88S593.79,18,593.79,18l-12.47,2.65,5.19.94s-.9.2-2.82.49-8.43,1-8.43,1L573,24s.35-.21-4.25.67a79.21,79.21,0,0,1-8.07,1.14L553,25.44l-7.66-.66-2.32,0,4.83-1.3-5.56-.21-4.21.89-1.52.61-9.38.69-2.46-.15-4.62.56-5.64.65c-3.18.79-1.92.28-3.18.79s-7,.2-9.11.91l-2.16.71s-5.54.11-7.21.3-9.54.26-9.54.26l.6,1.39s-3.54,1.43-4.16,1.84A26.11,26.11,0,0,1,476.46,34l-7.21.3-6.2-.11-3.49-.06L457.1,34a16.76,16.76,0,0,0-6,.64c-2.27.92-8.54,2-9.68,2.28s-4.06,1.32-4.06,1.32l3.52.7,4.32,1,8.63-.38,8.24-.39,4.85-1,6.67-.74,9.09-1.22s5.09-1.4,7-1.37,6.85,0,6.85,0l12.08-1-1.35,1.36s-.35.63.56.76,3.91.7,3.91.7-.74.63-.2,1.06l.54.44h0l-7.17.94,3.51.38,7.05-.73,3.07-.58,3.33-.37-1.6-1-2.61-.58-.93-.44.7-1.26,4.58-1.2,3.52.7s-1.09,1.26,0,1.49l1,.23s2.33,0,1.84.56a24.8,24.8,0,0,1-4,2l-1.76.71a1.67,1.67,0,0,1-1.1,1.26c-1,.41,9.62.59,9.62.59l1.76-.71,5.31-2.15,6.83.44-2.4.81s-3.69,1-4.45,1.31a1.3,1.3,0,0,0-.86.84l3.53.7L551.64,42l10.82-.45-3.26,1.65a61.36,61.36,0,0,0-6.42.63,41.37,41.37,0,0,1-4.56,1.52c-3.05.91-.86.84-3.05.91s-5.81-.1-5.81-.1L535,46l-4.13,0L526.57,46l-5.82-.1-6.62-.75-5.82-.1a13,13,0,0,0-3.21.15c-1.15.3-3.3,1-3.3,1h-5.68L489.39,46l.88-.52L490.06,44,486.18,44l-5.42-.09.1-.53L492,41l-2.36-.68-4,.14-2.44.17L479,40.34l-8.66-.26-6.2-.11-3.36.05-5.64.65Z" transform="translate(-3.82 -1.92)" style="fill:#010101"/><path d="M459.56,86.94l-7.18.94-4.29,1.74-5-.09-7.58.61-9.6,1.43-3,1.23a34.58,34.58,0,0,0-4.6.87,49.47,49.47,0,0,1-6,1l-2.27.92L406.43,97l-1,.41-2.78,1.12,3.49.06,4.65.08,3.1.06,5.44-2L432,95l7.24-2.11,12.24-2.66,6.31-2.55Z" transform="translate(-3.82 -1.92)" style="fill:#010101"/><polygon points="604.65 70.58 609.31 70.66 613.01 69.98 616.04 68.75 619.57 67.32 614.8 67.86 608.82 68.89 604.65 70.58" style="fill:#010101"/><path d="M662,73.43l-1.19,1.79-3.28,1.33,4.26.07,1,1.08.82,1-2,.82,1.63,1.31-3.54,1.43c-.75.3-5.72,1.49-5.72,1.49l-5-.09L648,83l.06-1.17-.46-1.28,3.89-2.06,2.1-1.67,1-1.37-1.6-1,2.78-1.13Z" transform="translate(-3.82 -1.92)" style="fill:#010101"/><polygon points="645.26 83.42 647.97 83.47 654.17 83.57 654.35 84.32 659 84.4 671.01 84.61 668.51 83.82 667.18 83.06 663.31 82.99 660.79 82.94 657.44 81.93 645.26 83.42" style="fill:#010101"/><path d="M685.68,82.15,681,82.07l-3.1-.06.84-1.15.47-1.91,7.32-1.9,3.2-.47,2.42,0,.6.86,6.28-.74,5.64-.65,9.58-1.75,8.87-.8,1.21,1s3.39.59,1.22,1-9.11.9-9.11.9l-2.78,1.12-9.84,1.86-4.29,1.73c-1,.41-1.8.08-3.7.68s-4.33,1.1-4.33,1.1l-5.81-.1Z" transform="translate(-3.82 -1.92)" style="fill:#010101"/><polygon points="752.23 71.39 754.91 70.3 755.47 69.26 750.65 70.23 746 70.15 736.34 71.11 740.22 71.18 737.6 72.89 740.12 72.93 752.23 71.39" style="fill:#010101"/><polygon points="759.79 65.72 762.31 64.7 760.57 64.67 755.72 64.58 760.01 62.85 764.32 62.5 767.6 61.17 764.3 61.11 757.92 62.39 751 63.22 747.97 64.45 749.42 65 752.62 65.59 755.91 65.65 759.79 65.72" style="fill:#010101"/><polygon points="772.81 57.43 777.83 56.13 780.61 55.01 776.35 54.94 773.32 56.16 768.27 58.2 772.81 57.43" style="fill:#010101"/><path d="M716.89,93.23l1.77-.72,5.9-.75-6.2-.1-1-1.72-6.68.41s3.21-.15-1.52.61-6,.64-7.87,1.14a35.64,35.64,0,0,1-4.54.78l-2.91,0-2.52,0-9.46.48a72,72,0,0,0-8.24,1.45,20.88,20.88,0,0,1-7.08.41l-10,1.74a13.32,13.32,0,0,0-5-.09,52.67,52.67,0,0,1-8.1.5c-1.16,0-9.79.36-11.13.66s-12.91,1-14.83,1.34-3.62-.17-4.73.77-6.82,2.75-6.82,2.75l-5.08,1.94c-2.12.81-6,1.38-8,1.88s-6.13,1.17-7.66,1.46-1.77.72-1.77.72-1.06.3-2.36.81.87.12,1.27.45,14.52-1.13,14.52-1.13l12.79.22,23.23-2.36s7.4.76,7.42,1.08,6.19.11,3.46.81-.67.84-3.53,1.43,4.13,1,4.13,1-3.32.68-3.81,1.21a.94.94,0,0,0-.19,1.06l3.17,1.33c5.69.31,17.66-.44,17.66-.44l12.41-1.91,36.3-4,7.9-1.89,6.31-2.55,2.16-2.84,5-2,8-2.73-1.12-1.51,4-1.63c.75-.31,5.79-2.67,5.79-2.67a45.4,45.4,0,0,0-8.19,1.35c-2.66.91-6.11,1.49-8.27,2.19s-11.77,1.82-11.77,1.82l-2.83.17-1.5-1.52Z" transform="translate(-3.82 -1.92)" style="fill:#010101"/><path d="M640.42,117.45l-3.91-.71s-6-.21-7,.2-7.66,2.21-7.66,2.21l2.79.58,8.83-1.45Z" transform="translate(-3.82 -1.92)" style="fill:#010101"/><path d="M773.17,90.91l-7-.12.07-1.17-.73-1.51s.6-.73-2.33,0a72.39,72.39,0,0,1-9.35,1L747.26,89l-5-.61,2.3-.93,4-.82L753,85l-5.81-.1L742.52,83l5.13-2.89,4.27.07-3.37,2.18,9.29-.16a18.88,18.88,0,0,1,4.5-.35c1.43.24,3.5.38,3.5.38s10.13,1.14,8.21,1.42.43.65.43.65l1.24,1.46s6.56-.37,6.46.16-9.29,2.29-9.29,2.29L775.44,90Z" transform="translate(-3.82 -1.92)" style="fill:#010101"/><path d="M734.47,78.68l-3.68-.06-2.13,0-6.18-.1-3.91-.07s-5.67,1.23-7.7,1.73-4.1.67-7,1.36A24.16,24.16,0,0,0,698.9,83c-1.77.71-4.6.87-5.86,1.38s3.13.7,3.13.7l5.13-.61,12.48-.79,3.28-1.33-6.88-.57,6.36-.93,5.06-.33,2.89-.27Z" transform="translate(-3.82 -1.92)" style="fill:#010101"/><polygon points="876.58 40.07 879.18 38.2 871.82 38.07 869.3 38.03 861.46 39.81 859.69 40.52 865.89 40.63 874.81 40.79 876.58 40.07" style="fill:#010101"/><polygon points="855.4 46.84 850.36 46.75 844.55 46.65 837.78 47.91 835.07 47.87 828.48 47.75 823.44 47.66 826.72 46.34 834.08 46.47 837.96 46.53 844.34 45.26 853.4 44.46 856.68 43.13 858.44 42.42 866 42.55 858.16 44.33 855.4 46.84" style="fill:#010101"/><polygon points="875.1 35.68 874.33 34.6 878.88 32.77 881.2 28.23 877.16 29.86 877.28 31.94 870.09 34.85 867.31 35.97 869.28 36.65 875.1 35.68" style="fill:#010101"/><path d="M165.1,58.72l-2.71,0-11.32.66-4.21.88-5.51.76-3.49-.06-3.77-.6-5.53.43.06-1.32-5.48-.9-5.38.71-3.15,1.27,6.91.64-.12.86,3.1.06,6.71-.75,1.2,1.31-2.78,1.12-4.29,1.74s-4,.46-5.37.86-8.07,1.14-9.6,1.43S101.66,69,101.66,69l-2.93.69-4.81,1.62s-8.12.18-7.58.61-2.83,4.74-2.83,4.74l-8,3.06-5.27,2.78,2.4,1.32L76,85.38s2.39,1.53,1.63,1.84S70.29,89.54,69.28,90s-8,2.73-8,2.73-7.61,2.42-9.37,3.14-5.67,1.71-7.72,2.42-7.32,3-7.32,3l-9.12,1.12s-3.81,1.21-5,2.68-2.35,1.77-2.33,2.09-2.45,1.55-3,2a21.59,21.59,0,0,1-3.28,1.32s-4.9,1.94-5.8,2.35-4.44,1.09-4.55,1.84.84,1.5.84,1.5,1.18.34,1.2.66,4.65.08,4.65.08-.87.52-1,1,3.6-.15,6.64,1.07a9.69,9.69,0,0,0,6.2.11,20.6,20.6,0,0,0-2-1.31l1.29-2.32a6.54,6.54,0,0,1,2.16-.71l7-1.37,1.51-.61-2.24-.89,2.64-1.23,6.81-.63,3.53-1.43,1.5-.93,1.76-.71,4.81.51,4.59-.88L59,105.2l12,.21,10-2.06-.57-1.08,6.43-.31c1.81-.07,12.77-2.54,12.77-2.54L113.3,97,122,95.76l5-2,13.83-2L158,91.49l13.37-3.28,12.74-2.87L189,83.4l16.76-2.68,15.44-3.14-.17-.75L220.62,75a16.89,16.89,0,0,0-4.17-.6c-2.32,0-6.08-.32-6.08-.32s-5.42-2.22-7-2.25-6.35-.54-5.87-1.06,4.71-3.54,4.71-3.54,1-1.36-1-1.4-4.32-1-6.26-1.07a8.81,8.81,0,0,1-3.95-1.34l-.22-1.71.06-1.17a42.94,42.94,0,0,0-4.78-.19c-2.19.07-7-.12-7-.12L178.67,59,174,58.87Z" transform="translate(-3.82 -1.92)" style="fill:#010101"/><path d="M128.13,57.65l-5.66.33.55-1.7s.7-1.26-.44-1-6.42.63-6.42.63l-3.56-1.34.68-1.58-6.68.41-9.31-.16-3.59-2L92,50a21.62,21.62,0,0,1,5.41-2.19,38.64,38.64,0,0,0,6.81-2.75c1.52-.61-.11-1.92,1.16-2.43s10.67-3,7.82-3.16-7.75-.14-7.75-.14a38.13,38.13,0,0,1-5.55,2.25,24.1,24.1,0,0,0-5.31,2.14A9.9,9.9,0,0,0,92,45.63l-1.13.62-1.66-1.94,1.77-.72,1.26-.51,3.28-1.33L99,40.32l4.57-1,2.16-.87-1.1-1.19a9,9,0,0,1,2.09-2l6.31-2.55c.75-.3,14.81-2.72,14.81-2.72s9.47-1.54,10.63-1.52,13.19-1.9,13.19-1.9,3.82-.89,6.11-1.49,9.55-2.39,9.55-2.39a6.83,6.83,0,0,0,2.14-1C170,21.12,177.2,19,177.2,19l5.72-1.5s3.42-1.21,4.68-1.72,1.72-1.68-1-1.73l-10.07-.17-9.91.57-8.14-.14-3.66-.81-8.36.6s-9.14.27-14.92.81S114.3,16,114.3,16l17.82-2.14,2.49-1.66c3.2-.47,9.5-.9,9.5-.9l13.24-.94,7.37.13L163.37,9.4l1.75-1,1.93,0,5,.09,5,.09,5.71-1.82c9.4-.37,20.45-1.24,20.45-1.24l7.6-.29,14.07,0,5.81.1,4,.81S241.21,8,244.13,8,258.67,8,258.67,8s15.57-.9,16.87-.77,4.9,0,5.71.63,6.73.23,8.56.79,4.39-.13,7,.76,10.62.61,13.48,1.09-1.67.18,7.62,0,13.93-.07,13.93-.07l11.06-.87s12.89-2.44,14.21-2-.32,1.27-.94,1.68-3.47.26-2.27.92,18.28-.85,18.28-.85,5.47-1.4,6.67-.74.56.76-5.05,2,6.75.54-5.6,1.28l-12.35.75a66.47,66.47,0,0,0-7.5-.24c-5.68,0-30,1.18-30,1.18s-.05-1-10.53,1-14.43,2.73-14.43,2.73l-3.59,2.38,16.76,0-6.23,1.71-5.86,1.38,15.78-1.64L321.49,21l8-1.78,4.33-1.09s10.06-2.28,13.28-2.43l3.22-.16,6.81-.63s3.95-.78,3.48.06-1.74,2.63-1.74,2.63l-3.28,1.33s-1.7.4,5.1-.23,18.89-1.59,18.89-1.59a24.7,24.7,0,0,0-10.2,2.17c-5,2.36-5.44,2-5.44,2l.63,2s9.18.37-3.4,1.53L348.62,26l4.93,2.75s-1.74-1.1-9.73-.81-6.32.1-6.32.1l-2-1S361.26,23.7,348,25s-8.78,0-8.78,0-1.14.3-12,.75-7-.12-7-.12l.83,1-5.7,1.82-.09.85L304.57,30l-7-.13s-5.45-.41-8.24.39S280.93,32,280.93,32l-10.82.45-10.25,1.21s-3.79.78-8.41,1.56-7.95,1.45-7.95,1.45-6.82.31-18.49,1.6-9.5.9-9.5.9l-5.63,1-14.94,2.94L188.5,45.5l-4.85,1s-3.08.27-1.18-.34l1.9-.6,4.8-1.94,4-1.64s7-1.05.36-.63-2.93.69-6.69.42,1.65-.51-2.6-.26,1.9-.61-2.71-.05,1.58.67-4.62.56l-6.2-.11L164,41.35s13.54-2.53-3.88-.07-.34-1.49-10.27.89,8.18-1.35-7.14,1.58-7.29,1.15-7.29,1.15L124.69,47s-9.16,2.39-8.35,3a8,8,0,0,0,2.77,1s2.73.37,5,.41l14-1.25,1.77-.71,9-.06a19.93,19.93,0,0,1,4.15.29c.79.33-8,1.28-8,1.28l-12.5,2.19s-3.82.15-2,.82,6.3.32,6.3.32.48-.52,2.81-.48a41,41,0,0,1,4.15.28l-4.92,2.15-3.7.68Z" transform="translate(-3.82 -1.92)" style="fill:#010101"/><path d="M185.77,51.67,185,50.34l-.62-1.72-5.81-.1-5.81-.1-11.24-.19-4,1.44,3.88.07,5.7.1,6.31.11-3.58,1.45,2.71,0,1.94,0a29.07,29.07,0,0,1,3.87.06C179.17,51.73,185.77,51.67,185.77,51.67Z" transform="translate(-3.82 -1.92)" style="fill:#010101"/><path d="M398.86,12.75l-1.06-1a4.63,4.63,0,0,0-2.27.92,12.08,12.08,0,0,1-2.1,1.45l-4.66,1.09-9-.8c-4.08,1-6.1-.63-6.1-.63l-.82-.66-3.38-.59,1.06-.79,8.17-.33,5.42.1L387.86,10l-2.11-.78-3.49-.06L383.6,8,380,7.91l-3.4-.06a13.38,13.38,0,0,0-3.49-.06L371.35,8,380,6.15s-4.91,0,3.87.06l8.78,0s5.8-.22,5.95.21.69-1.58,3.49.06-.64.1,2.24.89,1.17,0,2.89.8.92-1.36,2.32.2.8.17,1,1.24,2.19-.07.18,1.07l-2,1.13a5.43,5.43,0,0,0-2.44.17l-1.4.4-4.36.46Z" transform="translate(-3.82 -1.92)" style="fill:#010101"/><path d="M331.12,8.6l-4.54-.3-5.14.45-8.25.39s-5.43.23-6.2-.11a25.67,25.67,0,0,0-4.33-.53l-3.49-.06,3-.56s9.34-1,8.57-1.18-7-.12-7-.12l-4.54-.78,1.26-.51,13.21-.92,8.14.14,7.82.76a1.72,1.72,0,0,1,1.7.46c.56.75,5.08.72,5.08.72a44.21,44.21,0,0,1,4.86-.66c1.17,0,3.49.06,2.48.47s1.51-.44-4.14,1A31.55,31.55,0,0,1,331.12,8.6Z" transform="translate(-3.82 -1.92)" style="fill:#010101"/><path d="M430.84,16.82l-8.75.6.5-2.66,15.84-3.29L443,10.12l12.56-3.28-17.12.22s-2.38.3-1.1-.54-11.21,1.92,1.28-.85l12.49-2.76,16.6-1,6.59.12,15.4.8,9.4-.37s-2.57.06,3.49.06,4.65.08,4.65.08,10.1.5,12,.21a40.89,40.89,0,0,1,6.31.06l3,.42,14.3-.22s-.92-.61,6.76.69,13.59.56,10.64.93-4.52,0-11,.35,1.77-.72-6.44.31-5.93.11-5.93.11l-10.51.65s5.43.75,5.83,1.08l.41.32-3.88.59L518,8.87,515.59,9l-3,1.86-10-.38c-10.74,1.4,3.83-1.22-8.33.59s-6.11,1.49-12.16,1.82,5.7-1.82-4.52,0,4.19-1.2-5.66.33l-9.85,1.53-7.62,0-5.91.43s.48-.53-2.83.16a35.59,35.59,0,0,1-5.51.76l-2.71-.05Z" transform="translate(-3.82 -1.92)" style="fill:#010101"/><path d="M517.14,25.24l-9.91,1.11-2.78,1.12-11.31.12-4.38.14-1.18-.34,6.21-2,4.12-.19,3.81-1.06-1.1-1.19,1.24-.83a49.75,49.75,0,0,1,6.52-1.16l4.87-.66,3.22-.16,5.65.21,1.86.35-1.74,1s-1.81-1-5.42.76-2.52,1-2.52,1Z" transform="translate(-3.82 -1.92)" style="fill:#010101"/><path d="M514.4,15.4l-3.49-.06-2.68.59-7.85.4-6.67.74-1.47-.88L490.68,16l-.7-1,1.76-.72,8.49-.49s-3.93,1.11,1.59.67l5.53-.44s-.66-.22,3.21-.15l3.88.06,1.72.78Z" transform="translate(-3.82 -1.92)" style="fill:#010101"/><path d="M494.71,23.36l-3,1.23s.39,0-1.52.61.14.11-1.9.61a50.54,50.54,0,0,1-6.28.74l-3.9-.39,1.52-.61,3.28-1.33,7.26-.94Z" transform="translate(-3.82 -1.92)" style="fill:#010101"/></g></g></svg>